<mxfile host="app.diagrams.net" modified="2023-09-13T09:17:27.235Z" agent="Mozilla/5.0 (Windows NT 10.0; Win64; x64) AppleWebKit/537.36 (KHTML, like Gecko) Chrome/116.0.0.0 Safari/537.36" etag="Ct9N_g40UOXI7hxabTtp" version="21.7.4" type="device">
  <diagram name="Page-1" id="e3a06f82-3646-2815-327d-82caf3d4e204">
    <mxGraphModel dx="819" dy="429" grid="1" gridSize="10" guides="1" tooltips="1" connect="1" arrows="1" fold="1" page="1" pageScale="1.5" pageWidth="1169" pageHeight="826" background="none" math="0" shadow="0">
      <root>
        <mxCell id="0" style=";html=1;" />
        <mxCell id="1" style=";html=1;" parent="0" />
        <mxCell id="-1EmH2Gq1Rqn8fet1wRR-1" value="&lt;b&gt;Nameplate Submodel&lt;/b&gt;" style="rounded=0;whiteSpace=wrap;html=1;strokeColor=#6e87bf;fillColor=#e1e6f1;strokeWidth=2;" vertex="1" parent="1">
          <mxGeometry x="280" y="240" width="160" height="40" as="geometry" />
        </mxCell>
        <mxCell id="-1EmH2Gq1Rqn8fet1wRR-2" value="&lt;b&gt;Operational Submodel&lt;/b&gt;" style="rounded=0;whiteSpace=wrap;html=1;strokeColor=#6e87bf;strokeWidth=2;fillColor=#e1e6f0;" vertex="1" parent="1">
          <mxGeometry x="280" y="300" width="160" height="40" as="geometry" />
        </mxCell>
        <mxCell id="-1EmH2Gq1Rqn8fet1wRR-3" value="&lt;b&gt;Documentation Submodel&lt;/b&gt;" style="rounded=0;whiteSpace=wrap;html=1;strokeColor=#6e87bf;strokeWidth=2;fillColor=#e1e6ef;" vertex="1" parent="1">
          <mxGeometry x="280" y="360" width="160" height="40" as="geometry" />
        </mxCell>
        <mxCell id="-1EmH2Gq1Rqn8fet1wRR-4" value="&lt;b&gt;CAD Submodel&lt;/b&gt;" style="rounded=0;whiteSpace=wrap;html=1;strokeColor=#6e87bf;strokeWidth=2;fillColor=#e1e6ef;" vertex="1" parent="1">
          <mxGeometry x="280" y="420" width="160" height="40" as="geometry" />
        </mxCell>
        <mxCell id="-1EmH2Gq1Rqn8fet1wRR-5" value="&lt;b&gt;Model 3D Print Submodel&lt;/b&gt;" style="rounded=0;whiteSpace=wrap;html=1;strokeColor=#6e87bf;strokeWidth=2;fillColor=#e1e6ef;" vertex="1" parent="1">
          <mxGeometry x="280" y="480" width="160" height="40" as="geometry" />
        </mxCell>
        <mxCell id="-1EmH2Gq1Rqn8fet1wRR-6" value="" style="endArrow=none;html=1;rounded=0;exitX=1;exitY=0.5;exitDx=0;exitDy=0;strokeColor=#6e87bf;strokeWidth=2;" edge="1" parent="1" source="-1EmH2Gq1Rqn8fet1wRR-19">
          <mxGeometry width="50" height="50" relative="1" as="geometry">
            <mxPoint x="450" y="260" as="sourcePoint" />
            <mxPoint x="770" y="260" as="targetPoint" />
          </mxGeometry>
        </mxCell>
        <mxCell id="-1EmH2Gq1Rqn8fet1wRR-7" value="" style="endArrow=none;html=1;rounded=0;exitX=1;exitY=0.5;exitDx=0;exitDy=0;strokeColor=#6e87bf;strokeWidth=2;" edge="1" parent="1">
          <mxGeometry width="50" height="50" relative="1" as="geometry">
            <mxPoint x="440" y="379.7" as="sourcePoint" />
            <mxPoint x="770" y="380" as="targetPoint" />
          </mxGeometry>
        </mxCell>
        <mxCell id="-1EmH2Gq1Rqn8fet1wRR-8" value="" style="endArrow=none;html=1;rounded=0;exitX=1;exitY=0.5;exitDx=0;exitDy=0;strokeColor=#6e87bf;strokeWidth=2;" edge="1" parent="1" source="-1EmH2Gq1Rqn8fet1wRR-29">
          <mxGeometry width="50" height="50" relative="1" as="geometry">
            <mxPoint x="440" y="439.7" as="sourcePoint" />
            <mxPoint x="770" y="440" as="targetPoint" />
          </mxGeometry>
        </mxCell>
        <mxCell id="-1EmH2Gq1Rqn8fet1wRR-9" value="" style="endArrow=none;html=1;rounded=0;exitX=1;exitY=0.5;exitDx=0;exitDy=0;strokeColor=#6e87bf;strokeWidth=2;" edge="1" parent="1">
          <mxGeometry width="50" height="50" relative="1" as="geometry">
            <mxPoint x="440" y="499.7" as="sourcePoint" />
            <mxPoint x="770" y="500" as="targetPoint" />
          </mxGeometry>
        </mxCell>
        <mxCell id="-1EmH2Gq1Rqn8fet1wRR-10" value="" style="endArrow=none;html=1;rounded=0;exitX=1;exitY=0.5;exitDx=0;exitDy=0;strokeColor=#6e87bf;strokeWidth=2;" edge="1" parent="1">
          <mxGeometry width="50" height="50" relative="1" as="geometry">
            <mxPoint x="440" y="319.7" as="sourcePoint" />
            <mxPoint x="770" y="320" as="targetPoint" />
          </mxGeometry>
        </mxCell>
        <mxCell id="-1EmH2Gq1Rqn8fet1wRR-11" value="Technical&amp;nbsp;&lt;br&gt;View" style="text;html=1;strokeColor=none;fillColor=none;align=center;verticalAlign=middle;whiteSpace=wrap;rounded=0;fontStyle=1" vertex="1" parent="1">
          <mxGeometry x="470" y="550" width="60" height="30" as="geometry" />
        </mxCell>
        <mxCell id="-1EmH2Gq1Rqn8fet1wRR-12" value="Operational&lt;br&gt;View" style="text;html=1;strokeColor=none;fillColor=none;align=center;verticalAlign=middle;whiteSpace=wrap;rounded=0;fontStyle=1" vertex="1" parent="1">
          <mxGeometry x="550" y="550" width="60" height="30" as="geometry" />
        </mxCell>
        <mxCell id="-1EmH2Gq1Rqn8fet1wRR-13" value="Maintenance&lt;br&gt;View" style="text;html=1;strokeColor=none;fillColor=none;align=center;verticalAlign=middle;whiteSpace=wrap;rounded=0;fontStyle=1" vertex="1" parent="1">
          <mxGeometry x="630" y="550" width="60" height="30" as="geometry" />
        </mxCell>
        <mxCell id="-1EmH2Gq1Rqn8fet1wRR-14" value="Design&lt;br&gt;View" style="text;html=1;strokeColor=none;fillColor=none;align=center;verticalAlign=middle;whiteSpace=wrap;rounded=0;fontStyle=1" vertex="1" parent="1">
          <mxGeometry x="710" y="550" width="60" height="30" as="geometry" />
        </mxCell>
        <mxCell id="-1EmH2Gq1Rqn8fet1wRR-15" value="" style="endArrow=classic;html=1;rounded=0;strokeWidth=2;strokeColor=#7185bd;" edge="1" parent="1">
          <mxGeometry width="50" height="50" relative="1" as="geometry">
            <mxPoint x="500" y="240" as="sourcePoint" />
            <mxPoint x="500" y="540" as="targetPoint" />
          </mxGeometry>
        </mxCell>
        <mxCell id="-1EmH2Gq1Rqn8fet1wRR-16" value="" style="endArrow=classic;html=1;rounded=0;strokeWidth=2;strokeColor=#7185bd;" edge="1" parent="1" source="-1EmH2Gq1Rqn8fet1wRR-27">
          <mxGeometry width="50" height="50" relative="1" as="geometry">
            <mxPoint x="579.7" y="240" as="sourcePoint" />
            <mxPoint x="580" y="540" as="targetPoint" />
          </mxGeometry>
        </mxCell>
        <mxCell id="-1EmH2Gq1Rqn8fet1wRR-17" value="" style="endArrow=classic;html=1;rounded=0;strokeWidth=2;strokeColor=#7185bd;" edge="1" parent="1" source="-1EmH2Gq1Rqn8fet1wRR-31">
          <mxGeometry width="50" height="50" relative="1" as="geometry">
            <mxPoint x="659.7" y="240" as="sourcePoint" />
            <mxPoint x="660" y="540" as="targetPoint" />
          </mxGeometry>
        </mxCell>
        <mxCell id="-1EmH2Gq1Rqn8fet1wRR-18" value="" style="endArrow=classic;html=1;rounded=0;strokeWidth=2;strokeColor=#7185bd;" edge="1" parent="1" source="-1EmH2Gq1Rqn8fet1wRR-33">
          <mxGeometry width="50" height="50" relative="1" as="geometry">
            <mxPoint x="739.7" y="240" as="sourcePoint" />
            <mxPoint x="740" y="540" as="targetPoint" />
          </mxGeometry>
        </mxCell>
        <mxCell id="-1EmH2Gq1Rqn8fet1wRR-21" value="" style="endArrow=none;html=1;rounded=0;exitX=1;exitY=0.5;exitDx=0;exitDy=0;strokeColor=#6e87bf;strokeWidth=2;" edge="1" parent="1" source="-1EmH2Gq1Rqn8fet1wRR-1" target="-1EmH2Gq1Rqn8fet1wRR-19">
          <mxGeometry width="50" height="50" relative="1" as="geometry">
            <mxPoint x="440" y="260" as="sourcePoint" />
            <mxPoint x="770" y="260" as="targetPoint" />
          </mxGeometry>
        </mxCell>
        <mxCell id="-1EmH2Gq1Rqn8fet1wRR-19" value="" style="ellipse;whiteSpace=wrap;html=1;aspect=fixed;strokeWidth=2;fillColor=#e3e8f3;strokeColor=#6f85c1;" vertex="1" parent="1">
          <mxGeometry x="495" y="255" width="10" height="10" as="geometry" />
        </mxCell>
        <mxCell id="-1EmH2Gq1Rqn8fet1wRR-22" value="" style="ellipse;whiteSpace=wrap;html=1;aspect=fixed;strokeWidth=2;fillColor=#e3e8f3;strokeColor=#6f85c1;" vertex="1" parent="1">
          <mxGeometry x="495" y="375" width="10" height="10" as="geometry" />
        </mxCell>
        <mxCell id="-1EmH2Gq1Rqn8fet1wRR-28" value="" style="endArrow=none;html=1;rounded=0;strokeWidth=2;strokeColor=#7185bd;endFill=0;" edge="1" parent="1" target="-1EmH2Gq1Rqn8fet1wRR-27">
          <mxGeometry width="50" height="50" relative="1" as="geometry">
            <mxPoint x="579.7" y="240" as="sourcePoint" />
            <mxPoint x="579.7" y="520" as="targetPoint" />
          </mxGeometry>
        </mxCell>
        <mxCell id="-1EmH2Gq1Rqn8fet1wRR-27" value="" style="ellipse;whiteSpace=wrap;html=1;aspect=fixed;strokeWidth=2;fillColor=#e3e8f3;strokeColor=#6f85c1;" vertex="1" parent="1">
          <mxGeometry x="575" y="315" width="10" height="10" as="geometry" />
        </mxCell>
        <mxCell id="-1EmH2Gq1Rqn8fet1wRR-30" value="" style="endArrow=none;html=1;rounded=0;exitX=1;exitY=0.5;exitDx=0;exitDy=0;strokeColor=#6e87bf;strokeWidth=2;" edge="1" parent="1" target="-1EmH2Gq1Rqn8fet1wRR-29">
          <mxGeometry width="50" height="50" relative="1" as="geometry">
            <mxPoint x="440" y="439.7" as="sourcePoint" />
            <mxPoint x="770" y="440" as="targetPoint" />
          </mxGeometry>
        </mxCell>
        <mxCell id="-1EmH2Gq1Rqn8fet1wRR-32" value="" style="endArrow=none;html=1;rounded=0;strokeWidth=2;strokeColor=#7185bd;endFill=0;" edge="1" parent="1" target="-1EmH2Gq1Rqn8fet1wRR-31">
          <mxGeometry width="50" height="50" relative="1" as="geometry">
            <mxPoint x="659.7" y="240" as="sourcePoint" />
            <mxPoint x="659.7" y="520" as="targetPoint" />
          </mxGeometry>
        </mxCell>
        <mxCell id="-1EmH2Gq1Rqn8fet1wRR-31" value="" style="ellipse;whiteSpace=wrap;html=1;aspect=fixed;strokeWidth=2;fillColor=#e3e8f3;strokeColor=#6f85c1;" vertex="1" parent="1">
          <mxGeometry x="655" y="495" width="10" height="10" as="geometry" />
        </mxCell>
        <mxCell id="-1EmH2Gq1Rqn8fet1wRR-29" value="" style="ellipse;whiteSpace=wrap;html=1;aspect=fixed;strokeWidth=2;fillColor=#e3e8f3;strokeColor=#6f85c1;" vertex="1" parent="1">
          <mxGeometry x="655" y="435" width="10" height="10" as="geometry" />
        </mxCell>
        <mxCell id="-1EmH2Gq1Rqn8fet1wRR-34" value="" style="endArrow=none;html=1;rounded=0;strokeWidth=2;strokeColor=#7185bd;endFill=0;" edge="1" parent="1" target="-1EmH2Gq1Rqn8fet1wRR-33">
          <mxGeometry width="50" height="50" relative="1" as="geometry">
            <mxPoint x="739.7" y="240" as="sourcePoint" />
            <mxPoint x="739.7" y="520" as="targetPoint" />
          </mxGeometry>
        </mxCell>
        <mxCell id="-1EmH2Gq1Rqn8fet1wRR-33" value="" style="ellipse;whiteSpace=wrap;html=1;aspect=fixed;strokeWidth=2;fillColor=#e3e8f3;strokeColor=#6f85c1;" vertex="1" parent="1">
          <mxGeometry x="735" y="435" width="10" height="10" as="geometry" />
        </mxCell>
      </root>
    </mxGraphModel>
  </diagram>
</mxfile>
